# xmcd
#
# Track frame offsets:
#   150
#   19280
#   41565
#   60347
#   82929
#   104961
#   126367
#   148216
#   169365
#   188621
#   204979
#   227382
#   249363
#   271194
#   294923
#
# Disc length: 4213 seconds
#
# Revision: 0
# Processed by: cddbd v1.5.2PL0 Copyright (c) Steve Scherf et al.
# Submitted via: Media_Universe 3.0
#
DISCID=d010730f
DTITLE=Billy Ocean - Billy Ocean - The Real... Billy Ocean_ The Ultimate Collection [Disc 3]
DYEAR=2014
DGENRE=R and B
TTITLE0=Billy Ocean - Love Zone
TTITLE1=Billy Ocean - Bitter Sweet
TTITLE2=Billy Ocean - Love Is Forever
TTITLE3=Billy Ocean - Without You
TTITLE4=Billy Ocean - It's Never Too Late To Try
TTITLE5=Billy Ocean - Get Outta My Dreams, Get Into My Car
TTITLE6=Billy Ocean - Calypso Crazy
TTITLE7=Billy Ocean - Let's Get Back Together
TTITLE8=Billy Ocean - The Colour Of Love
TTITLE9=Billy Ocean - Tear Down These Walls
TTITLE10=Billy Ocean - Stand And Deliver
TTITLE11=Billy Ocean - Pleasure
TTITLE12=Billy Ocean - License To Chill
TTITLE13=Billy Ocean - I Sleep Much Better (In Someone Else's Bed)
TTITLE14=Billy Ocean - Pressure
EXTD=
EXTT0=
EXTT1=
EXTT2=
EXTT3=
EXTT4=
EXTT5=
EXTT6=
EXTT7=
EXTT8=
EXTT9=
EXTT10=
EXTT11=
EXTT12=
EXTT13=
EXTT14=
PLAYORDER=
